# xmcd CD database file
#
# Track frame offsets:
#	150
#	15982
#	26911
#	42523
#	53756
#	66708
#	80660
#	91462
#	104446
#	116388
#	132109
#	144179
#	156655
#	183766
#	202743
#	219362
#	245646
#	258013
#	271878
#
# Disc length: 3893 seconds
#
# Revision: 0
# Processed by: cddbd v1.5.2PL0 Copyright (c) Steve Scherf et al.
# Submitted via: CDex 1.51
#
DISCID=090f3313
DTITLE=Various Artist - More Miles Than Money, Disc 1
DYEAR=2010
DGENRE=Blues
TTITLE0=Alejandro Escovedo/Castanets
TTITLE1=Jimmy Castor/Hey Leroy (Your Mama's Calling You)
TTITLE2=Selena/Bidi Bidi Bom Bom
TTITLE3=Linda Lyndell/I Don't Know
TTITLE4=Bobby Rush/It's Alright
TTITLE5=Mariachi Los Gavilanes De Oakland/Los Traficantes De Michoacan
TTITLE6=Sam The Sham and The Pharoahs/I Couldn't Spell !!*@!
TTITLE7=Dale Watson/Ain't That Livin'
TTITLE8=Jimmie Rodgers/Standing On The Corner (Blue Yodel #9)
TTITLE9=Bessie Smith/Gimme A Pigfoot And A Bottle Of Beer
TTITLE10=Mable John/Able Mable
TTITLE11=Memphis Minnie/Nothing In Rambling
TTITLE12=Marlena Shaw/Woman Of The Ghetto
TTITLE13=The Dells/Sittin' On The Dock Of The Bay
TTITLE14=Billy Joe Shaver and Johnny Cash/You Just Can't Beat Jesus Christ
TTITLE15=Furry Lewis/John Henry Blues
TTITLE16=J.J. Grey and Mofro/Turpentine
TTITLE17=Big George Brock/Down South
TTITLE18=Pipestone/Crazy Love Life
EXTD=YEAR: 2010
EXTT0=
EXTT1=
EXTT2=
EXTT3=
EXTT4=
EXTT5=
EXTT6=
EXTT7=
EXTT8=
EXTT9=
EXTT10=
EXTT11=
EXTT12=
EXTT13=
EXTT14=
EXTT15=
EXTT16=
EXTT17=
EXTT18=
PLAYORDER=
